HIERARCHY
ROOT Hips
{
  OFFSET 48.4141 93.7172 13.8819
  CHANNELS 6 Xposition Yposition Zposition Zrotation Xrotation Yrotation
  JOINT spine
  {
    OFFSET 0 7.80059 0.448573
    CHANNELS 3 Zrotation Xrotation Yrotation
    JOINT spine1
    {
      OFFSET 0 10.1364 0
      CHANNELS 3 Zrotation Xrotation Yrotation
      JOINT spine2
      {
        OFFSET 0 9.71251 0
        CHANNELS 3 Zrotation Xrotation Yrotation
        JOINT Neck
        {
          OFFSET 0 24.9361 1.18887
          CHANNELS 3 Zrotation Xrotation Yrotation
          JOINT Head
          {
            OFFSET 0 7.53384 0
            CHANNELS 3 Zrotation Xrotation Yrotation
            End Site
            {
              OFFSET 0 18.2361 -6.01402
            }
          }
        }
        JOINT RightShoulder
        {
          OFFSET -4.08965 10.4888 -0.569457
          CHANNELS 3 Zrotation Xrotation Yrotation
          JOINT RightArm
          {
            OFFSET 0 13.757 0
            CHANNELS 3 Zrotation Xrotation Yrotation
            JOINT RightArmRoll
            {
              OFFSET 0 6.94478 0
              CHANNELS 3 Zrotation Xrotation Yrotation
              JOINT RightForeArm
              {
                OFFSET 0 20.2277 0
                CHANNELS 3 Zrotation Xrotation Yrotation
                JOINT RightForeArmRoll
                {
                  OFFSET 0 7.79312 0
                  CHANNELS 3 Zrotation Xrotation Yrotation
                  JOINT RightHand
                  {
                    OFFSET 0 15.6391 0
                    CHANNELS 3 Zrotation Xrotation Yrotation
                    End Site
                    {
                      OFFSET 0 0 0
                    }
                  }
                }
              }
            }
          }
        }
        JOINT LeftShoulder
        {
          OFFSET 4.08965 10.4888 -0.569457
          CHANNELS 3 Zrotation Xrotation Yrotation
          JOINT LeftArm
          {
            OFFSET 0 13.757 0
            CHANNELS 3 Zrotation Xrotation Yrotation
            JOINT LeftArmRoll
            {
              OFFSET 0 6.94478 0
              CHANNELS 3 Zrotation Xrotation Yrotation
              JOINT LeftForeArm
              {
                OFFSET 0 20.2277 0
                CHANNELS 3 Zrotation Xrotation Yrotation
                JOINT LeftForeArmRoll
                {
                  OFFSET 0 7.79312 0
                  CHANNELS 3 Zrotation Xrotation Yrotation
                  JOINT LeftHand
                  {
                    OFFSET 0 15.6391 0
                    CHANNELS 3 Zrotation Xrotation Yrotation
                    End Site
                    {
                      OFFSET 0 0 0
                    }
                  }
                }
              }
            }
          }
        }
      }
    }
  }
  JOINT RightUpLeg
  {
    OFFSET -6.91415 -1.26788 -1.06358
    CHANNELS 3 Zrotation Xrotation Yrotation
    JOINT RightUpLegRoll
    {
      OFFSET 0 18.3378 0
      CHANNELS 3 Zrotation Xrotation Yrotation
      JOINT RightLeg
      {
        OFFSET 0 -22.7085 0
        CHANNELS 3 Zrotation Xrotation Yrotation
        JOINT RightLegRoll
        {
          OFFSET 0 22.7828 0
          CHANNELS 3 Zrotation Xrotation Yrotation
          JOINT RightFoot
          {
            OFFSET 0 18.9629 0
            CHANNELS 3 Zrotation Xrotation Yrotation
            JOINT RightToeBase
            {
              OFFSET 0 15.852 0
              CHANNELS 3 Zrotation Xrotation Yrotation
              End Site
              {
                OFFSET 0.00671906 7.67701 -0.884893
              }
            }
          }
        }
      }
    }
  }
  JOINT LeftUpLeg
  {
    OFFSET 6.91415 -1.26788 -1.06358
    CHANNELS 3 Zrotation Xrotation Yrotation
    JOINT LeftUpLegRoll
    {
      OFFSET 0 18.3379 0
      CHANNELS 3 Zrotation Xrotation Yrotation
      JOINT LeftLeg
      {
        OFFSET 0 22.7084 0
        CHANNELS 3 Zrotation Xrotation Yrotation
        JOINT LeftLegRoll
        {
          OFFSET 0 22.9934 0
          CHANNELS 3 Zrotation Xrotation Yrotation
          JOINT LeftFoot
          {
            OFFSET 0 18.7522 0
            CHANNELS 3 Zrotation Xrotation Yrotation
            JOINT LeftToeBase
            {
              OFFSET 0 15.852 0
              CHANNELS 3 Zrotation Xrotation Yrotation
              End Site
              {
                OFFSET -0.030112 7.67701 -0.884892
              }
            }
          }
        }
      }
    }
  }
}
MOTION
Frames: 11
Frame Time: 0.00208333
56.2195 93.9479 12.748 -1.20312 -5.91003 0.478672 0.169386 0.0131224 0.399079 0.33638 4.03021 0.776095 0.328716 5.67521 0.771161 -1.1725 26.3074 -2.22454 5.54573 -12.5719 -1.47427 82.6521 -4.24176 -4.20808 87.2531 13.2871 13.4783 2.46351e-006 1.72146e-006 2.10492e-006 12.5223 13.5249 -2.36098 -8.7205e-006 -4.40922e-006 -2.99999 8.02885 -4.95141 0.697671 -60.6035 -2.0081 1.42712 -111.798 3.98204 -13.3459 -3.14271e-006 2.99925e-006 -1.79532e-006 -2.30572 18.0158 1.38222 5.53409e-006 1.62777e-006 3 -8.03001 -4.95145 -0.697665 -176.771 -0.898655 -2.33089 180 7.01521e-015 178.815 178.501 11.3713 179.65 1.38295e-006 -7.81174e-006 0.290778 -22.1105 69.6408 21.0994 8.12781 25.2407 -3.47764 178.893 -0.196474 6.32558 4.54188e-006 -4.6773e-006 -1.4434 -5.70252 -15.0195 -0.530079 4.60273e-006 1.22541e-006 -0.283841 26.8449 72.2401 -24.4247 -8.13404 25.2372 3.48275 
56.2448 93.9338 12.5887 -1.21222 -5.91177 0.454547 0.169622 0.0178934 0.398257 0.336778 4.03975 0.774411 0.329052 5.68475 0.76948 -1.1668 26.3088 -2.21523 5.52945 -12.6182 -1.46414 82.6519 -4.24054 -4.20762 87.2755 13.3712 13.4591 2.46351e-006 1.72146e-006 2.10492e-006 12.5202 13.4948 -2.35662 -8.7205e-006 -4.40922e-006 -2.99999 8.02885 -4.95141 0.697671 -60.6101 -2.01331 1.43086 -111.796 4.00123 -13.2953 -3.14271e-006 2.99925e-006 -1.79532e-006 -2.33518 18.0745 1.3921 5.53409e-006 1.62777e-006 3 -8.03001 -4.95145 -0.697665 -176.764 -0.91302 -2.33658 180 7.01521e-015 178.815 178.506 11.3424 179.65 1.38295e-006 -7.81174e-006 0.29011 -22.118 69.6247 21.0844 8.12781 25.2407 -3.47764 178.901 -0.184884 6.3139 4.54188e-006 -4.6773e-006 -1.44436 -5.71176 -15.0461 -0.532706 4.60273e-006 1.22541e-006 -0.28379 26.8631 72.2524 -24.4426 -8.13404 25.2372 3.48275 
56.2374 93.9398 12.6085 -1.22127 -5.91368 0.430564 0.169842 0.0226042 0.397443 0.337148 4.04917 0.772747 0.329356 5.69417 0.76782 -1.15976 26.3115 -2.20627 5.51167 -12.665 -1.45416 82.6526 -4.23923 -4.20719 87.2968 13.4554 13.4401 2.46351e-006 1.72146e-006 2.10492e-006 12.5183 13.4642 -2.35219 -8.7205e-006 -4.40922e-006 -2.99999 8.02885 -4.95141 0.697671 -60.6172 -2.01876 1.43478 -111.793 4.02063 -13.2447 -3.14271e-006 2.99925e-006 -1.79532e-006 -2.36469 18.1332 1.40201 5.53409e-006 1.62777e-006 3 -8.03001 -4.95145 -0.697665 -176.757 -0.929149 -2.34213 180 7.01521e-015 178.815 178.51 11.3104 179.65 1.38295e-006 -7.81174e-006 0.289418 -22.125 69.6071 21.068 8.12781 25.2407 -3.47764 178.91 -0.173677 6.30222 4.54188e-006 -4.6773e-006 -1.44528 -5.721 -15.0723 -0.53527 4.60273e-006 1.22541e-006 -0.283714 26.8802 72.2645 -24.46 -8.13404 25.2372 3.48275 
56.2667 93.9494 12.7846 -1.23029 -5.91571 0.40668 0.170051 0.027273 0.396635 0.337498 4.0585 0.771096 0.329638 5.70351 0.766174 -1.15179 26.315 -2.19754 5.49285 -12.7123 -1.44428 82.6541 -4.23784 -4.20677 87.3174 13.5396 13.4211 2.46351e-006 1.72146e-006 2.10492e-006 12.5166 13.4332 -2.3477 -8.7205e-006 -4.40922e-006 -2.99999 8.02885 -4.95141 0.697671 -60.6246 -2.02438 1.43883 -111.79 4.04018 -13.1941 -3.14271e-006 2.99925e-006 -1.79532e-006 -2.39424 18.192 1.41195 5.53409e-006 1.62777e-006 3 -8.03001 -4.95145 -0.697665 -176.749 -0.946513 -2.34757 180 7.01521e-015 178.816 178.515 11.276 179.65 1.38295e-006 -7.81174e-006 0.288708 -22.1318 69.5884 21.0506 8.12781 25.2407 -3.47764 178.919 -0.162739 6.29053 4.54188e-006 -4.6773e-006 -1.44617 -5.73025 -15.098 -0.537792 4.60273e-006 1.22541e-006 -0.28362 26.8967 72.2764 -24.4771 -8.13404 25.2372 3.48275 
56.2758 93.9454 12.7219 -1.23929 -5.9178 0.382854 0.170254 0.0319176 0.395831 0.337838 4.06779 0.769453 0.329908 5.7128 0.764537 -1.14328 26.3191 -2.18895 5.47343 -12.7598 -1.43446 82.6559 -4.23642 -4.20635 87.3376 13.6239 13.4023 2.46351e-006 1.72146e-006 2.10492e-006 12.5149 13.4019 -2.34319 -8.7205e-006 -4.40922e-006 -2.99999 8.02885 -4.95141 0.697671 -60.6321 -2.03009 1.44296 -111.787 4.05982 -13.1435 -3.14271e-006 2.99925e-006 -1.79532e-006 -2.42382 18.2507 1.42189 5.53409e-006 1.62777e-006 3 -8.03001 -4.95145 -0.697665 -176.742 -0.964582 -2.35295 180 7.01521e-015 178.816 178.519 11.2404 179.65 1.38295e-006 -7.81174e-006 0.287988 -22.1385 69.5692 21.0326 8.12781 25.2407 -3.47764 178.928 -0.151954 6.27884 4.54188e-006 -4.6773e-006 -1.44704 -5.7395 -15.1236 -0.54029 4.60273e-006 1.22541e-006 -0.283517 26.9127 72.2881 -24.494 -8.13404 25.2372 3.48275 
56.2416 93.9435 12.7348 -1.24829 -5.91991 0.359041 0.170456 0.0365562 0.395028 0.338175 4.07707 0.767812 0.330176 5.72207 0.762901 -1.13464 26.3233 -2.1804 5.45388 -12.8074 -1.42465 82.6577 -4.23498 -4.20594 87.3578 13.7082 13.3835 2.46351e-006 1.72146e-006 2.10492e-006 12.5133 13.3706 -2.33866 -8.7205e-006 -4.40922e-006 -2.99999 8.02885 -4.95141 0.697671 -60.6397 -2.03583 1.44711 -111.784 4.07949 -13.0929 -3.14271e-006 2.99925e-006 -1.79532e-006 -2.45343 18.3095 1.43185 5.53409e-006 1.62777e-006 3 -8.03001 -4.95145 -0.697665 -176.735 -0.982827 -2.35832 180 7.01521e-015 178.816 178.523 11.2044 179.65 1.38295e-006 -7.81174e-006 0.287265 -22.1452 69.5497 21.0145 8.12781 25.2407 -3.47764 178.936 -0.141206 6.26715 4.54188e-006 -4.6773e-006 -1.44791 -5.74875 -15.1491 -0.542782 4.60273e-006 1.22541e-006 -0.283411 26.9287 72.2999 -24.511 -8.13404 25.2372 3.48275 
56.2578 93.9414 12.7375 -1.2573 -5.92198 0.3352 0.170661 0.0412069 0.394223 0.338519 4.08637 0.766167 0.33045 5.73137 0.761261 -1.12626 26.3272 -2.17177 5.43464 -12.8548 -1.41482 82.6595 -4.23357 -4.20553 87.3782 13.7925 13.3646 2.46351e-006 1.72146e-006 2.10492e-006 12.5116 13.3394 -2.33416 -8.7205e-006 -4.40922e-006 -2.99999 8.02885 -4.95141 0.697671 -60.6472 -2.04151 1.45122 -111.782 4.09912 -13.0423 -3.14271e-006 2.99925e-006 -1.79532e-006 -2.48305 18.3683 1.44181 5.53409e-006 1.62777e-006 3 -8.03001 -4.95145 -0.697665 -176.727 -1.00072 -2.36372 180 7.01521e-015 178.817 178.528 11.1691 179.65 1.38295e-006 -7.81174e-006 0.286548 -22.152 69.5306 20.9967 8.12781 25.2407 -3.47764 178.945 -0.130382 6.25546 4.54188e-006 -4.6773e-006 -1.44879 -5.758 -15.1747 -0.545287 4.60273e-006 1.22541e-006 -0.283311 26.9449 72.3117 -24.528 -8.13404 25.2372 3.48275 
56.2497 93.9391 12.7362 -1.26633 -5.92397 0.311288 0.170874 0.0458876 0.393414 0.338877 4.09573 0.764513 0.330741 5.74073 0.759611 -1.11856 26.3305 -2.16297 5.41619 -12.902 -1.4049 82.6607 -4.2322 -4.2051 87.3992 13.8768 13.3457 2.46351e-006 1.72146e-006 2.10492e-006 12.5099 13.3085 -2.32969 -8.7205e-006 -4.40922e-006 -2.99999 8.02885 -4.95141 0.697671 -60.6545 -2.04708 1.45523 -111.779 4.11864 -12.9918 -3.14271e-006 2.99925e-006 -1.79532e-006 -2.51268 18.4271 1.45177 5.53409e-006 1.62777e-006 3 -8.03001 -4.95145 -0.697665 -176.72 -1.01773 -2.36919 180 7.01521e-015 178.817 178.532 11.1354 179.65 1.38295e-006 -7.81174e-006 0.285843 -22.159 69.5122 20.9797 8.12781 25.2407 -3.47764 178.954 -0.119364 6.24377 4.54188e-006 -4.6773e-006 -1.44968 -5.76726 -15.2005 -0.547825 4.60273e-006 1.22541e-006 -0.283222 26.9616 72.3237 -24.5453 -8.13404 25.2372 3.48275 
56.2559 93.9374 12.7433 -1.27541 -5.92582 0.287261 0.1711 0.0506166 0.392598 0.339259 4.10518 0.762842 0.331058 5.75019 0.757945 -1.11193 26.3328 -2.15391 5.39897 -12.9487 -1.39485 82.6612 -4.23092 -4.20466 87.4212 13.961 13.3268 2.46351e-006 1.72146e-006 2.10492e-006 12.5079 13.2781 -2.3253 -8.7205e-006 -4.40922e-006 -2.99999 8.02885 -4.95141 0.697671 -60.6614 -2.05246 1.4591 -111.777 4.13801 -12.9412 -3.14271e-006 2.99925e-006 -1.79532e-006 -2.54231 18.4858 1.46173 5.53409e-006 1.62777e-006 3 -8.03001 -4.95145 -0.697665 -176.713 -1.03333 -2.37478 180 7.01521e-015 178.817 178.537 11.1043 179.65 1.38295e-006 -7.81174e-006 0.285158 -22.1663 69.4951 20.9639 8.12781 25.2407 -3.47764 178.962 -0.108039 6.23209 4.54188e-006 -4.6773e-006 -1.45062 -5.77651 -15.2268 -0.550412 4.60273e-006 1.22541e-006 -0.283154 26.9793 72.3358 -24.563 -8.13404 25.2372 3.48275 
56.2619 93.9346 12.731 -1.28454 -5.92749 0.263078 0.171343 0.0554116 0.391772 0.339673 4.11477 0.76115 0.331411 5.75978 0.756256 -1.10677 26.3336 -2.14446 5.38344 -12.9947 -1.38464 82.6606 -4.22974 -4.20419 87.4446 14.0451 13.3077 2.46351e-006 1.72146e-006 2.10492e-006 12.5058 13.2483 -2.32099 -8.7205e-006 -4.40922e-006 -2.99999 8.02885 -4.95141 0.697671 -60.6678 -2.05758 1.46277 -111.775 4.15715 -12.8905 -3.14271e-006 2.99925e-006 -1.79532e-006 -2.57193 18.5444 1.47167 5.53409e-006 1.62777e-006 3 -8.03001 -4.95145 -0.697665 -176.705 -1.04699 -2.38054 180 7.01521e-015 178.817 178.541 11.0767 179.65 1.38295e-006 -7.81174e-006 0.2845 -22.1741 69.4796 20.9497 8.12781 25.2407 -3.47764 178.971 -0.0962915 6.22042 4.54188e-006 -4.6773e-006 -1.45159 -5.78578 -15.2536 -0.553069 4.60273e-006 1.22541e-006 -0.283113 26.9981 72.3482 -24.5813 -8.13404 25.2372 3.48275 
56.2557 93.9287 12.7383 -1.29374 -5.92893 0.238695 0.171609 0.060291 0.390934 0.340127 4.12453 0.759431 0.331809 5.76954 0.754538 -1.10349 26.3326 -2.13454 5.37005 -13.04 -1.37421 82.6587 -4.2287 -4.2037 87.4696 14.1291 13.2884 2.46351e-006 1.72146e-006 2.10492e-006 12.5033 13.2192 -2.31679 -8.7205e-006 -4.40922e-006 -2.99999 8.02885 -4.95141 0.697671 -60.6736 -2.06236 1.46617 -111.773 4.176 -12.8399 -3.14271e-006 2.99925e-006 -1.79532e-006 -2.60153 18.6029 1.48159 5.53409e-006 1.62777e-006 3 -8.03001 -4.95145 -0.697665 -176.698 -1.05818 -2.3865 180 7.01522e-015 178.818 178.546 11.0536 179.65 1.38295e-006 -7.81174e-006 0.283878 -22.1825 69.4663 20.9377 8.12781 25.2407 -3.47764 178.98 -0.0840053 6.20876 4.54188e-006 -4.6773e-006 -1.45263 -5.79504 -15.2812 -0.555814 4.60273e-006 1.22541e-006 -0.283107 27.0185 72.3609 -24.6002 -8.13404 25.2372 3.48275 
